<?xml version="1.0"?>
<svg xmlns="http://www.w3.org/2000/svg" height="512px" viewBox="0 0 480 480" width="512px" class=""><g><path d="m432 240c0 106.039062-85.960938 192-192 192s-192-85.960938-192-192 85.960938-192 192-192 192 85.960938 192 192zm0 0" fill="#cfd2fc" data-original="#CFD2FC" class="active-path" style="fill:#D8F0FD" data-old_color="#cfd2fc"/><path d="m240 480c-132.546875 0-240-107.453125-240-240s107.453125-240 240-240 240 107.453125 240 240c-.148438 132.484375-107.515625 239.851562-240 240zm0-464c-123.710938 0-224 100.289062-224 224s100.289062 224 224 224 224-100.289062 224-224c-.140625-123.652344-100.347656-223.859375-224-224zm0 0" fill="#8690fa" data-original="#8690FA" class="" data-old_color="#8690fa" style="fill:#13C192"/><g fill="#5153ff"><path d="m240 344c-47.082031.011719-88.296875-31.609375-100.480469-77.085938-12.183593-45.476562 7.703125-93.464843 48.480469-116.992187 3.808594-2.050781 8.554688-.703125 10.71875 3.039063 2.164062 3.746093.957031 8.53125-2.71875 10.808593-34.492188 19.914063-51.308594 60.511719-41 98.984375s45.171875 65.222656 85 65.222656 74.691406-26.75 85-65.222656-6.507812-79.070312-41-98.984375c-3.675781-2.277343-4.882812-7.0625-2.71875-10.808593 2.164062-3.742188 6.910156-5.089844 10.71875-3.039063 40.777344 23.527344 60.664062 71.515625 48.480469 116.992187-12.183594 45.476563-53.398438 77.097657-100.480469 77.085938zm0 0" data-original="#5153FF" class="" style="fill:#18715A" data-old_color="#5153FF"/><path d="m240 200c-4.417969 0-8-3.582031-8-8v-96c0-4.417969 3.582031-8 8-8s8 3.582031 8 8v96c0 4.417969-3.582031 8-8 8zm0 0" data-original="#5153FF" class="" style="fill:#18715A" data-old_color="#5153FF"/></g></g> </svg>
