<?xml version="1.0"?>
<svg xmlns="http://www.w3.org/2000/svg" xmlns:xlink="http://www.w3.org/1999/xlink" version="1.1" id="Capa_1" x="0px" y="0px" viewBox="0 0 512.002 512.002" style="enable-background:new 0 0 512.002 512.002;" xml:space="preserve" width="512px" height="512px" class=""><g><g>
	<g>
		<g>
			<path d="M471.662,288.898c-1.799-5.827-5.762-10.604-11.157-13.453c-5.393-2.848-11.571-3.425-17.391-1.625     c-35.892,11.083-44.178,37.726-49.66,55.358c-4.525,14.549-6.299,18.206-13.336,20.719c-0.989,0.353-1.969,0.696-2.943,1.032     c-2.847-9.542-5.479-19.312-7.621-28.083c-0.539-7.588-1.892-15.069-4.045-22.371c8.487-3.456,16.415-7.348,23.72-11.676     c39.307-23.289,60.083-58.831,60.083-102.784c0-19.53-3.983-38.532-11.622-56.371c21.193-31.623,27.032-70.488,15.961-107.35     c-3.48-11.584-13.49-19.982-25.501-21.398c-36.741-4.33-72.901,7.175-99.997,31.621c-24.613-8.806-51.347-13.442-78.925-13.442     s-54.312,4.635-78.925,13.441C143.207,8.069,107.047-3.433,70.305,0.897c-12.013,1.415-22.023,9.815-25.5,21.398     c-11.073,36.861-5.234,75.726,15.96,107.35c-7.639,17.839-11.622,36.841-11.622,56.371c0,52.856,29.368,92.443,83.787,114.518     c-2.143,7.284-3.49,14.746-4.028,22.313c-5.509,22.558-14.264,51.741-21.54,66.561c-3.771,7.679-4.325,16.366-1.562,24.461     c2.764,8.096,8.515,14.631,16.193,18.402c4.438,2.179,9.181,3.284,14.098,3.284c12.316,0,23.338-6.865,28.765-17.916     c0.742-1.512,1.497-3.127,2.261-4.831c2.631,2.287,5.37,4.467,8.212,6.53c0.038,11.774-0.031,25.019-0.092,36.857l-0.008,1.616     c-0.041,8.082-0.08,15.69-0.08,22.164c0,17.659,14.367,32.025,32.025,32.025c17.659,0,32.025-14.367,32.025-32.025     c0-6.809,0.042-14.886,0.088-23.447l0.001-0.296c0.023-4.446,0.046-9.013,0.065-13.599c3.259,0.248,6.552,0.38,9.878,0.38     s6.619-0.132,9.878-0.38c0.019,4.586,0.042,9.153,0.065,13.599l0.001,0.297c0.046,8.56,0.088,16.638,0.088,23.446     c0,17.659,14.367,32.025,32.025,32.025c13.79,0,25.995-8.781,30.372-21.85c1.315-3.928-0.802-8.178-4.729-9.494     c-3.927-1.316-8.18,0.802-9.493,4.73c-2.327,6.947-8.817,11.615-16.15,11.615c-9.389,0-17.026-7.638-17.026-17.026     c0-6.832-0.042-14.937-0.088-23.524l-0.002-0.296c-0.026-5.078-0.052-10.313-0.072-15.555     c12.105-2.378,23.543-6.458,34.022-11.955c0.006,7.973,0.045,16.266,0.086,24.288c0.021,4.129,3.375,7.461,7.499,7.461h0.04     c4.142-0.021,7.482-3.396,7.461-7.539c-0.057-11.195-0.11-22.915-0.075-33.52c2.842-2.063,5.581-4.244,8.212-6.531     c0.764,1.706,1.519,3.322,2.26,4.832c5.427,11.051,16.449,17.916,28.765,17.916c4.917,0,9.66-1.105,14.098-3.284     c7.679-3.771,13.43-10.306,16.193-18.401c2.246-6.581,2.3-13.552,0.217-20.055c0.854-0.298,1.72-0.603,2.604-0.919     c29.22-10.436,36.654-34.339,41.574-50.157c3.504-11.27,5.697-17.387,11.099-21.345c0.071-0.048,0.138-0.102,0.208-0.153     c2.15-1.53,4.801-2.735,8.228-3.794c5.826-1.799,10.604-5.759,13.451-11.151C472.884,300.903,473.462,294.724,471.662,288.898z      M429.815,113.885c-9.777-17.021-23.086-32.695-39.625-46.387c-1.172-0.97-2.356-1.927-3.551-2.87     c18.734-15.105,39.274-22.453,55.511-26.014C445.405,56.496,446.27,84.878,429.815,113.885z M426.396,15.793     c5.167,0.609,9.592,3.778,11.884,8.315c-18.792,4.202-42.679,13.024-64.167,31.433c-9.512-6.359-19.62-11.938-30.215-16.694     C367.035,20.62,396.496,12.269,426.396,15.793z M72.061,15.793c29.898-3.524,59.36,4.828,82.499,23.054     c-10.595,4.755-20.703,10.335-30.214,16.693c-21.489-18.41-45.377-27.23-64.167-31.433     C62.468,19.571,66.894,16.401,72.061,15.793z M56.308,38.615c16.236,3.56,36.774,10.91,55.51,26.013     c-1.196,0.943-2.38,1.9-3.551,2.87C91.729,81.19,78.419,96.864,68.642,113.885C52.187,84.878,53.053,56.496,56.308,38.615z      M151.39,411.027c-2.886,5.876-8.748,9.527-15.301,9.527c-2.605,0-5.124-0.588-7.486-1.748c-4.082-2.005-7.14-5.479-8.609-9.783     c-1.469-4.304-1.174-8.922,0.831-13.005c4.236-8.627,8.667-20.932,12.695-33.797c4.579,14.486,12.197,27.763,22.166,39.189     C154.211,404.99,152.771,408.215,151.39,411.027z M224.287,456.154l-0.002,0.294c-0.046,8.59-0.088,16.695-0.088,23.526     c0,9.388-7.638,17.026-17.026,17.026c-9.388,0-17.026-7.638-17.026-17.026c0-6.454,0.039-14.035,0.079-22.088l0.009-1.616     c0.046-8.819,0.095-18.415,0.102-27.625c10.479,5.497,21.918,9.577,34.023,11.955     C224.34,445.841,224.313,451.076,224.287,456.154z M249.229,428.013c-58.24,0-105.62-43.79-105.62-97.615     c0-8.399,1.163-16.683,3.436-24.722c9.966,3.255,20.639,5.998,32.014,8.197c4.079,0.786,8.001-1.874,8.787-5.94     c0.787-4.067-1.873-8.001-5.939-8.788c-13.262-2.564-25.48-5.899-36.648-9.966c-0.118-0.051-0.232-0.107-0.354-0.152     c-0.233-0.086-0.467-0.159-0.702-0.221c-19.163-7.101-35.148-16.412-47.756-27.848c-21.435-19.443-32.304-44.658-32.304-74.943     c0-83.78,83.029-151.939,185.086-151.939s185.086,68.159,185.086,151.939c0,38.909-17.741,69.149-52.73,89.88     c-8.418,4.988-17.761,9.356-27.923,13.099c-0.036,0.013-0.072,0.021-0.108,0.034c-0.028,0.01-0.053,0.024-0.081,0.035     c-28.784,10.567-64.188,16.076-104.243,16.076c-11.237,0-22.286-0.444-32.841-1.32c-4.107-0.348-7.752,2.725-8.095,6.854     c-0.342,4.128,2.727,7.752,6.855,8.094c10.965,0.91,22.431,1.372,34.081,1.372c38.517,0,73.108-4.958,102.174-14.497     c2.28,8.05,3.446,16.347,3.446,24.757C354.849,384.223,307.468,428.013,249.229,428.013z M378.462,409.023     c-1.47,4.304-4.527,7.778-8.609,9.783c-2.362,1.16-4.882,1.749-7.486,1.749c-6.553,0-12.415-3.651-15.301-9.527     c-1.378-2.806-2.818-6.032-4.297-9.616c9.97-11.426,17.588-24.703,22.165-39.189c4.028,12.864,8.46,25.169,12.696,33.797     C379.636,400.1,379.931,404.719,378.462,409.023z M422.728,338.284c-4.513,14.51-10.129,32.567-32.295,40.485     c-1.179,0.421-2.318,0.819-3.442,1.208c-1.757-4.443-3.547-9.437-5.312-14.735c1.153-0.396,2.313-0.799,3.485-1.218     c14.807-5.288,18.252-16.366,22.613-30.391c3.285-10.563,7.098-22.789,17.006-32.487c1.625,4.799,4.169,9.867,8.133,14.319     C427.836,321.882,425.378,329.762,422.728,338.284z M456.773,299.289c-0.977,1.849-2.615,3.207-4.613,3.824     c-2.781,0.859-5.251,1.852-7.472,2.959c-3.979-4.148-5.933-9.553-6.878-14.074c2.922-1.446,6.151-2.739,9.734-3.846     c1.993-0.617,4.108-0.418,5.958,0.559c1.852,0.978,3.211,2.616,3.828,4.614C457.947,295.322,457.749,297.44,456.773,299.289z" data-original="#000000" class="active-path" data-old_color="#000000" fill="#94DFB4"/>
			<path d="M151.445,228.983c-10.843,2.879-31.299,13.156-39.242,19.02c-3.333,2.46-4.04,7.156-1.58,10.488     c1.471,1.992,3.74,3.046,6.04,3.046c1.547,0,3.108-0.477,4.448-1.467c6.566-4.847,25.353-14.246,34.184-16.59     c4.003-1.063,6.387-5.17,5.324-9.174C159.556,230.305,155.451,227.923,151.445,228.983z" data-original="#000000" class="active-path" data-old_color="#000000" fill="#94DFB4"/>
			<path d="M175.048,168.442c-4.143,0-7.5,3.358-7.5,7.5v12.314c0,4.142,3.357,7.5,7.5,7.5c4.143,0,7.5-3.358,7.5-7.5v-12.314     C182.547,171.8,179.19,168.442,175.048,168.442z" data-original="#000000" class="active-path" data-old_color="#000000" fill="#94DFB4"/>
			<path d="M224.744,203.366c3.121,2.72,7.859,2.395,10.581-0.727c3.51-4.027,8.577-6.337,13.903-6.337s10.394,2.31,13.904,6.338     c1.483,1.702,3.565,2.572,5.657,2.572c1.748,0,3.504-0.607,4.925-1.846c3.122-2.722,3.448-7.459,0.727-10.582     c-6.36-7.297-15.55-11.482-25.212-11.482c-9.664,0-18.854,4.186-25.211,11.483C221.295,195.908,221.621,200.644,224.744,203.366z     " data-original="#000000" class="active-path" data-old_color="#000000" fill="#94DFB4"/>
			<path d="M145.307,217.681c4.097,0.538,7.875-2.346,8.418-6.453c0.542-4.106-2.347-7.876-6.453-8.418     c-11.123-1.469-33.949,0.238-43.529,2.633c-4.019,1.004-6.461,5.077-5.457,9.095c0.853,3.408,3.91,5.683,7.271,5.683     c0.603,0,1.215-0.073,1.825-0.226C115.298,218.015,136.252,216.483,145.307,217.681z" data-original="#000000" class="active-path" data-old_color="#000000" fill="#94DFB4"/>
			<path d="M353.15,217.681c9.057-1.198,30.009,0.333,37.926,2.313c0.611,0.153,1.223,0.226,1.825,0.226     c3.36-0.001,6.418-2.275,7.271-5.683c1.005-4.019-1.439-8.09-5.457-9.095c-9.579-2.395-32.409-4.103-43.529-2.633     c-4.107,0.542-6.995,4.311-6.453,8.418C345.275,215.334,349.041,218.219,353.15,217.681z" data-original="#000000" class="active-path" data-old_color="#000000" fill="#94DFB4"/>
			<path d="M343.162,243.48c8.83,2.344,27.617,11.743,34.185,16.59c1.341,0.989,2.9,1.466,4.448,1.466c2.3,0,4.569-1.054,6.04-3.046     c2.46-3.333,1.753-8.028-1.58-10.488c-7.945-5.865-28.402-16.141-39.243-19.02c-4.004-1.061-8.111,1.32-9.174,5.324     C336.776,238.31,339.159,242.417,343.162,243.48z" data-original="#000000" class="active-path" data-old_color="#000000" fill="#94DFB4"/>
			<path d="M323.41,195.756c4.143,0,7.5-3.358,7.5-7.5v-12.314c0-4.142-3.357-7.5-7.5-7.5c-4.143,0-7.5,3.358-7.5,7.5v12.314     C315.91,192.398,319.268,195.756,323.41,195.756z" data-original="#000000" class="active-path" data-old_color="#000000" fill="#94DFB4"/>
		</g>
	</g>
</g></g> </svg>
