<?xml version="1.0" encoding="iso-8859-1"?>
<!-- Generator: Adobe Illustrator 19.0.0, SVG Export Plug-In . SVG Version: 6.00 Build 0)  -->
<svg version="1.1" id="Capa_1" xmlns="http://www.w3.org/2000/svg" xmlns:xlink="http://www.w3.org/1999/xlink" x="0px" y="0px"
	 viewBox="0 0 512.005 512.005" style="enable-background:new 0 0 512.005 512.005;" xml:space="preserve">
<g>
	<g style="opacity:0.4;">
		<path style="fill:#3EB798;" d="M173.868,154.734v51.891c-0.016,52.75,42.722,95.521,95.473,95.536
			c9.28,0,18.512-1.353,27.41-4.011L173.868,154.734z"/>
		<path style="fill:#3EB798;" d="M348.96,260.426c10.569-15.933,16.124-34.684,15.917-53.801V95.203
			c-0.175-52.75-43.073-95.377-95.823-95.202c-40.239,0.127-76.085,25.468-89.631,63.367L348.96,260.426z"/>
	</g>
	<path style="fill:#3EB798;" d="M460.382,206.625c0-17.589-14.246-31.835-31.835-31.835s-31.835,14.246-31.835,31.835
		c-0.048,28.46-9.63,56.093-27.219,78.473l41.863,48.867C442.888,299.041,460.366,253.677,460.382,206.625z"/>
	<path style="fill:#3EB798;" d="M468.659,456.528L86.64,10.84C73.588-0.939,53.453,0.096,41.674,13.164
		c-9.789,10.824-10.935,26.932-2.786,39.061l240.353,281.738c-3.343,0-6.526,0-9.869,0c-70.323,0-127.339-57.016-127.339-127.339
		c0-17.589-14.246-31.835-31.835-31.835s-31.835,14.246-31.835,31.835c0.096,93.133,67.347,172.624,159.174,188.144v82.452
		c0,17.589,14.246,31.835,31.835,31.835s31.835-14.246,31.835-31.835v-82.611c8.564-1.48,17.032-3.566,25.309-6.208l93.754,109.512
		c9.805,14.596,29.575,18.48,44.171,8.691c14.596-9.789,18.48-29.575,8.691-44.171c-1.448-2.165-3.168-4.139-5.109-5.889
		L468.659,456.528z"/>
</g>
<g>
</g>
<g>
</g>
<g>
</g>
<g>
</g>
<g>
</g>
<g>
</g>
<g>
</g>
<g>
</g>
<g>
</g>
<g>
</g>
<g>
</g>
<g>
</g>
<g>
</g>
<g>
</g>
<g>
</g>
</svg>
